# xmcd
#
# Track frame offsets:
#	150
#	17764
#	29554
#	44120
#	69991
#	117954
#	133137
#	151664
#	168519
#	186031
#	217940
#	233885
#	252019
#	280236
#
# Disc length: 3907 seconds
#
# Revision: 1
# Processed by: cddbd v1.5.1PL0 Copyright (c) Steve Scherf et al.
# Submitted via: audiograbber 1.83.01
#
DISCID=c20f410e
DTITLE=Ryan and the Del-Rays - Absolute Custom
DYEAR=2003
DGENRE=Blues
TTITLE0=Walkin' Down the Line
TTITLE1=Dreamcatcher
TTITLE2=Crosscut Saw
TTITLE3=Absolute Custom
TTITLE4=Tin Pan Alley
TTITLE5=Double Trouble
TTITLE6=Life in Our World
TTITLE7=The Real Way to Love
TTITLE8=Pride and Joy
TTITLE9=Backseat Blues
TTITLE10=Train to San Antone
TTITLE11=Black Sheep Funk
TTITLE12=VooDoo Chile
TTITLE13=Scuttle Buttin'
EXTD=
EXTT0=
EXTT1=
EXTT2=
EXTT3=
EXTT4=
EXTT5=
EXTT6=
EXTT7=
EXTT8=
EXTT9=
EXTT10=
EXTT11=
EXTT12=
EXTT13=
PLAYORDER=
